<svg width="1177.130371" height="120.801636" viewBox="0 0 1177.13 120.802" fill="none" xmlns="http://www.w3.org/2000/svg" xmlns:xlink="http://www.w3.org/1999/xlink">
	<desc>
			Created with Pixso.
	</desc>
	<defs/>
	<path id="Vector" d="M312.24 72.89L252.69 0.25L229.73 0.23L229.61 119.86L229.61 119.61L257.06 83.58L257.1 47.28L286.96 83.61L301.89 101.78L316.82 119.94L339.61 119.96L339.67 60.15L339.7 30.24L339.73 0.34L339.73 0.39L312.28 36.6L312.24 72.89Z" fill="#ffffff" fill-opacity="1.000000" fill-rule="nonzero"/>
	<path id="Vector" d="M529.63 0.55L497.41 53.63L465.44 0.49L435.92 0.46L482.06 77.49L482.06 105.5L510.06 120L510.06 120L510.06 99.41L510.06 77.49L556.92 0.58L529.63 0.55Z" fill="#ffffff" fill-opacity="1.000000" fill-rule="nonzero"/>
	<path id="Vector" d="M920.95 82.08C928.26 79.04 934.5 73.9 938.9 67.31C943.11 60.88 945.23 53.23 945.24 44.35C945.25 35.35 943.15 27.59 938.94 21.1C934.57 14.46 928.34 9.25 921.02 6.13C913.29 2.65 904.08 0.9 893.37 0.89L841.62 0.83L869.26 23.39L841.53 65.15L841.53 90.55L841.5 120.46L869.17 120.49L869.18 103.81L869.2 87.13L893.28 87.15L894.57 87.15L917.49 120.52L947.37 120.55L920.7 82.17L920.95 82.08ZM910.93 28.92C915.14 32.57 917.23 37.7 917.23 44.31C917.22 50.8 915.11 55.9 910.9 59.62C906.69 63.33 900.31 65.18 891.77 65.15L869.22 65.13L869.26 23.39L891.81 23.41C900.35 23.42 906.73 25.25 910.93 28.91L910.93 28.92Z" fill="#ffffff" fill-opacity="1.000000" fill-rule="nonzero"/>
	<path id="Vector" d="M53.13 0.05L26.56 59.84L0 119.62L28.2 119.65L66.51 27.25L93.65 93.34L66.71 93.31L104.48 119.73L133.37 119.76L106.84 59.91L80.31 0.08L53.13 0.05Z" fill="#ffffff" fill-opacity="1.000000" fill-rule="nonzero"/>
	<rect id="Прямоугольник 1" x="67.290039" y="68.243042" width="59.813084" height="25.000000" fill="#111827" fill-opacity="1.000000"/>
	<path id="Vector" d="M1123.93 1.12L1096.75 1.09L1043.62 120.66L1071.82 120.69L1110.14 28.29L1137.28 94.38L1110.34 94.35L1148.12 120.77L1177 120.8L1123.93 1.12Z" fill="#ffffff" fill-opacity="1.000000" fill-rule="nonzero"/>
	<rect id="Прямоугольник 1" x="1109.019043" y="69.665771" width="59.813084" height="25.000000" fill="#111827" fill-opacity="1.000000"/>
	<rect id="Прямоугольник 1" x="817.000000" y="23.451904" width="59.813084" height="41.548042" transform="rotate(-1.51247e-06 817.000000 23.451904)" fill="#111827" fill-opacity="1.000000"/>
	<path id="Vector" d="M673 97.5L653.09 119.62L745.22 119.71L745.24 97.5L673 97.5Z" fill="#ffffff" fill-opacity="1.000000" fill-rule="nonzero"/>
	<path id="Vector" d="M680.42 69.96L735.66 70.02L735.68 48.49L680.44 48.44L680.44 48.44L671.5 48.49L654.5 59.5L671.5 69.96L680.42 69.96Z" fill="#ffffff" fill-opacity="1.000000" fill-rule="nonzero"/>
	<path id="Vector" d="M680.42 23.72L680.42 23.72L680.42 23.72L680.42 23.66L680.42 23.66L742.97 23.72L742.99 1.5L652 1.5L671.71 23.72L680.42 23.72L670.97 23.72L670.97 23.72L670.97 23.72L680.42 23.72Z" fill="#ffffff" fill-opacity="1.000000" fill-rule="nonzero"/>
</svg>
