<svg width="360" height="722" viewBox="0 0 360 722" fill="none" xmlns="http://www.w3.org/2000/svg">
<path fill-rule="evenodd" clip-rule="evenodd" d="M54.7402 0.751953C25.4998 0.751953 1.96094 24.2909 1.96094 53.5312V668.209C1.96094 697.449 25.4998 720.99 54.7402 720.99H161.703L163.889 717.893H171.646H188.353H196.109L198.297 720.99H305.26C334.5 720.99 358.039 697.449 358.039 668.209V249.648H345.164H345.164C344.22 249.648 343.459 248.887 343.459 247.943V168.782V168.782C343.459 167.897 344.128 167.175 344.989 167.088C345.047 167.082 345.105 167.079 345.164 167.079H358.039V53.5312C358.039 24.2909 334.5 0.751953 305.26 0.751953H54.7402ZM23.707 54.2734C23.707 36.5054 38.0112 22.2012 55.7793 22.2012H87.1523H272.848H304.221C321.989 22.2012 336.293 36.5054 336.293 54.2734V667.469C336.293 685.237 321.989 699.541 304.221 699.541H55.7793C38.0112 699.541 23.707 685.237 23.707 667.469V54.2734Z" fill="black"/>
<path d="M14.8366 97.7257H1.70463C0.76319 97.7257 0 98.4889 0 99.4303V124.053C0 124.994 0.76319 125.757 1.70463 125.757H14.8366C15.7781 125.757 16.5412 124.994 16.5412 124.053V99.4303C16.5412 98.4889 15.7781 97.7257 14.8366 97.7257Z" fill="black"/>
<mask id="mask0_188_5146" style="mask-type:luminance" maskUnits="userSpaceOnUse" x="0" y="97" width="17" height="29">
<path d="M14.8366 97.7257H1.70463C0.76319 97.7257 0 98.4889 0 99.4303V124.053C0 124.994 0.76319 125.757 1.70463 125.757H14.8366C15.7781 125.757 16.5412 124.994 16.5412 124.053V99.4303C16.5412 98.4889 15.7781 97.7257 14.8366 97.7257Z" fill="white"/>
</mask>
<g mask="url(#mask0_188_5146)">
<g filter="url(#filter0_f_188_5146)">
<path d="M2.06835 99.2465C1.22646 99.2465 0.548828 99.9241 0.548828 100.766V122.717C0.548828 123.559 1.22646 124.237 2.06835 124.237H2.54101V99.2465H2.06835Z" fill="url(#paint0_linear_188_5146)"/>
</g>
</g>
<path d="M1.70508 150.002C0.760712 150.002 0 150.761 0 151.705V200.509C0 201.453 0.760712 202.214 1.70508 202.214H14.8359C15.7803 202.214 16.541 201.453 16.541 200.509V151.705C16.541 150.761 15.7803 150.002 14.8359 150.002H1.70508Z" fill="black"/>
<mask id="mask1_188_5146" style="mask-type:luminance" maskUnits="userSpaceOnUse" x="0" y="150" width="17" height="53">
<path d="M1.70508 150.002C0.760712 150.002 0 150.761 0 151.705V200.509C0 201.453 0.760712 202.214 1.70508 202.214H14.8359C15.7803 202.214 16.541 201.453 16.541 200.509V151.705C16.541 150.761 15.7803 150.002 14.8359 150.002H1.70508Z" fill="white"/>
</mask>
<g mask="url(#mask1_188_5146)">
<g filter="url(#filter1_f_188_5146)">
<path d="M2.06836 151.522C1.22646 151.522 0.548828 152.199 0.548828 153.041V199.173C0.548828 200.015 1.22646 200.693 2.06836 200.693H2.54101V151.522H2.06836Z" fill="url(#paint1_linear_188_5146)"/>
</g>
</g>
<path d="M1.70508 215.662C0.760712 215.662 0 216.421 0 217.365V266.169C0 267.113 0.760712 267.874 1.70508 267.874H14.8359C15.7803 267.874 16.541 267.113 16.541 266.169V217.365C16.541 216.421 15.7803 215.662 14.8359 215.662H1.70508Z" fill="black"/>
<mask id="mask2_188_5146" style="mask-type:luminance" maskUnits="userSpaceOnUse" x="0" y="215" width="17" height="53">
<path d="M1.70508 215.662C0.760712 215.662 0 216.421 0 217.365V266.169C0 267.113 0.760712 267.874 1.70508 267.874H14.8359C15.7803 267.874 16.541 267.113 16.541 266.169V217.365C16.541 216.421 15.7803 215.662 14.8359 215.662H1.70508Z" fill="white"/>
</mask>
<g mask="url(#mask2_188_5146)">
<g filter="url(#filter2_f_188_5146)">
<path d="M2.06836 217.182C1.22646 217.182 0.548828 217.859 0.548828 218.701V264.833C0.548828 265.675 1.22646 266.353 2.06836 266.353H2.54101V217.182H2.06836Z" fill="url(#paint2_linear_188_5146)"/>
</g>
</g>
<path d="M3.16211 74.9336H7.32809V70.0098H3.16211V74.9336Z" fill="#7D7E7F"/>
<path d="M3.16211 647.058H7.32809V74.9336H3.16211V647.058Z" fill="#EBEBEB"/>
<path d="M3.16211 651.984H7.32809V647.059H3.16211V651.984Z" fill="#7D7E7F"/>
<path d="M356.838 651.984H352.672V668.461C352.672 695.043 331.272 716.443 304.689 716.443H55.3105C28.7284 716.443 7.32809 695.043 7.32809 668.461V651.984H3.16211V666.281C3.16211 695.96 27.0558 719.854 56.7343 719.854H303.266C332.944 719.854 356.838 695.96 356.838 666.281V651.984Z" fill="#EBEBEB"/>
<path d="M356.838 647.059H352.672V651.984H356.838V647.059Z" fill="#7D7E7F"/>
<path d="M356.838 74.9336H352.672V647.058H356.838V74.9336Z" fill="#EBEBEB"/>
<path d="M356.838 70.0098H352.672V74.9336H356.838V70.0098Z" fill="#7D7E7F"/>
<path d="M56.7343 2.26562C27.0558 2.26562 3.16211 26.1593 3.16211 55.8379V70.0098H7.32809V54.2246C7.32809 27.6424 28.7284 6.24414 55.3105 6.24414H304.689C331.272 6.24414 352.672 27.6424 352.672 54.2246V70.0098H356.838V55.8379C356.838 26.1593 332.944 2.26562 303.266 2.26562H56.7343Z" fill="#EBEBEB"/>
<mask id="mask3_188_5146" style="mask-type:luminance" maskUnits="userSpaceOnUse" x="3" y="2" width="354" height="718">
<path d="M56.7344 2.01367C27.0558 2.01367 3.16211 25.9074 3.16211 55.5859V666.029C3.16211 695.708 27.0558 719.601 56.7344 719.601H303.266C332.944 719.601 356.838 695.708 356.838 666.029V55.5859C356.838 25.9074 332.944 2.01367 303.266 2.01367H56.7344ZM55.3106 5.99219H304.689C331.272 5.99219 352.672 27.3905 352.672 53.9727V668.209C352.672 694.791 331.272 716.191 304.689 716.191H55.3106C28.7284 716.191 7.32813 694.791 7.32813 668.209V53.9727C7.32813 27.3905 28.7284 5.99219 55.3106 5.99219Z" fill="white"/>
</mask>
<g mask="url(#mask3_188_5146)">
<g filter="url(#filter3_f_188_5146)">
<path fill-rule="evenodd" clip-rule="evenodd" d="M37.9241 11.58C31.3373 11.4122 18.7834 13.4059 5.89281 27.8925C-12.8572 48.964 3.92797 36.2851 3.92797 36.2851C3.92797 36.2851 15.4464 18.4288 31.5178 16.1074C47.5892 13.786 42.678 12.1777 42.678 12.1777C42.678 12.1777 40.9181 11.6563 37.9241 11.58ZM322.076 11.58C319.082 11.6563 317.322 12.1777 317.322 12.1777C317.322 12.1777 312.411 13.786 328.483 16.1074C344.554 18.4288 356.072 36.2851 356.072 36.2851C356.072 36.2851 372.858 48.964 354.108 27.8925C341.217 13.4059 328.663 11.4122 322.076 11.58ZM-2.43922 681.941C-3.87749 681.769 -2.89625 684.23 5.89281 694.107C24.6428 715.179 42.678 709.822 42.678 709.822C42.678 709.822 47.5892 708.214 31.5178 705.892C15.4464 703.571 3.92797 685.715 3.92797 685.715C3.92797 685.715 -0.809168 682.137 -2.43922 681.941ZM362.44 681.941C360.81 682.137 356.072 685.715 356.072 685.715C356.072 685.715 344.554 703.571 328.483 705.892C312.411 708.214 317.322 709.822 317.322 709.822C317.322 709.822 335.358 715.179 354.108 694.107C362.897 684.23 363.878 681.769 362.44 681.941Z" fill="#434343"/>
</g>
</g>
<path d="M325.152 15.3634C323.977 15.247 324.532 16.418 327.167 18.8594C335.864 26.9146 341.263 38.5735 341.263 51.5508V361.123V670.695C341.263 683.673 335.864 695.332 327.167 703.387C324.532 705.828 323.977 706.999 325.152 706.883C325.856 706.813 327.184 706.28 329.056 705.281C341.765 698.501 349.146 683.873 349.146 668.336V361.123V53.9102C349.146 38.3734 341.765 23.7453 329.056 16.9649C327.184 15.9662 325.856 15.4331 325.152 15.3634Z" fill="url(#paint3_linear_188_5146)"/>
<path d="M34.8477 15.3634C36.0222 15.2471 35.4678 16.418 32.832 18.8594C24.1358 26.9146 18.7363 38.5735 18.7363 51.5508V361.123V670.695C18.7363 683.673 24.1358 695.332 32.832 703.387C35.4678 705.828 36.0222 706.999 34.8477 706.883C34.1429 706.813 32.8155 706.28 30.9434 705.281C18.2339 698.501 10.8535 683.873 10.8535 668.336V361.123V53.9102C10.8535 38.3734 18.2339 23.7453 30.9434 16.9649C32.8155 15.9662 34.1429 15.4331 34.8477 15.3634Z" fill="url(#paint4_linear_188_5146)"/>
<path d="M55.2715 9.74097C46.584 9.74097 38.5024 12.2256 31.6797 16.5144V22.2019C38.1819 17.9368 45.9665 15.4539 54.3574 15.4539H154.182H206.322H306.146C314.537 15.4539 322.322 17.9368 328.824 22.2019V16.5144C322.001 12.2256 313.92 9.74097 305.232 9.74097H206.322H154.182H55.2715Z" fill="url(#paint5_linear_188_5146)"/>
<path d="M55.2715 712.001C46.584 712.001 38.5024 709.517 31.6797 705.228V699.54C38.1819 703.805 45.9665 706.288 54.3574 706.288H154.182H206.322H306.146C314.537 706.288 322.322 703.805 328.824 699.54V705.228C322.001 709.517 313.92 712.001 305.232 712.001H206.322H154.182H55.2715Z" fill="url(#paint6_linear_188_5146)"/>
<g clip-path="url(#clip0_188_5146)">
<path d="M24 54.3714C24 36.593 38.4123 22.1807 56.1908 22.1807H304.128C321.907 22.1807 336.319 36.593 336.319 54.3714V59.8191H24V54.3714Z" fill="white"/>
<path d="M118.152 20.5789H241.811V32.5911C241.811 40.1099 235.716 46.205 228.197 46.205H131.766C124.248 46.205 118.152 40.1099 118.152 32.5911V20.5789Z" fill="black"/>
<path d="M118.338 20.5789H114.334C114.334 20.5789 114.334 20.5789 114.334 20.5789C116.457 20.5789 118.177 22.2996 118.177 24.4223C118.177 24.4761 118.176 24.5297 118.174 24.5829H118.338V20.5789Z" fill="black"/>
<path d="M241.664 20.5789H245.668C245.668 20.5789 245.668 20.5789 245.668 20.5789C243.546 20.5789 241.825 22.2996 241.825 24.4223C241.825 24.4761 241.826 24.5297 241.828 24.5829H241.664V20.5789Z" fill="black"/>
<path d="M60.447 39.03C57.8488 39.03 55.9977 40.8064 55.9977 43.2385V43.2551C55.9977 45.5295 57.6081 47.2063 59.9074 47.2063C61.551 47.2063 62.5969 46.3679 63.0368 45.4216H63.2028C63.2028 45.5129 63.1945 45.6042 63.1945 45.6956C63.1032 47.9866 62.298 49.8459 60.3972 49.8459C59.343 49.8459 58.6042 49.2981 58.2888 48.4597L58.2639 48.3767H56.1555L56.1721 48.468C56.5539 50.3025 58.1974 51.6057 60.3972 51.6057C63.4103 51.6057 65.2282 49.2151 65.2282 45.1809V45.1643C65.2282 40.8479 63.0036 39.03 60.447 39.03ZM60.4387 45.5627C59.0773 45.5627 58.0895 44.5667 58.0895 43.1804V43.1638C58.0895 41.8274 59.1437 40.7732 60.4636 40.7732C61.7917 40.7732 62.8293 41.844 62.8293 43.2136V43.2302C62.8293 44.5833 61.7917 45.5627 60.4387 45.5627ZM68.5888 43.5457C69.3524 43.5457 69.9086 42.9646 69.9086 42.2341C69.9086 41.4954 69.3524 40.9226 68.5888 40.9226C67.8334 40.9226 67.2689 41.4954 67.2689 42.2341C67.2689 42.9646 67.8334 43.5457 68.5888 43.5457ZM68.5888 49.7048C69.3524 49.7048 69.9086 49.1321 69.9086 48.3933C69.9086 47.6545 69.3524 47.0818 68.5888 47.0818C67.8334 47.0818 67.2689 47.6545 67.2689 48.3933C67.2689 49.1321 67.8334 49.7048 68.5888 49.7048ZM77.7599 51.3069H79.8102V49.0076H81.4205V47.2395H79.8102V39.3289H76.7804C75.1534 41.8025 73.4518 44.5583 71.8995 47.2561V49.0076H77.7599V51.3069ZM73.8917 47.2893V47.1648C75.0538 45.1311 76.44 42.9148 77.6686 41.0388H77.7931V47.2893H73.8917ZM85.9764 51.3069H88.118V39.3289H85.9847L82.8553 41.5286V43.5457L85.8353 41.4373H85.9764V51.3069Z" fill="#010101"/>
<path opacity="0.35" d="M293.231 40.5995C293.231 39.0637 294.476 37.8187 296.012 37.8187H309.626C311.162 37.8187 312.407 39.0637 312.407 40.5995V44.6036C312.407 46.1394 311.162 47.3844 309.626 47.3844H296.012C294.476 47.3844 293.231 46.1394 293.231 44.6036V40.5995Z" stroke="black" stroke-width="0.844932"/>
<path opacity="0.4" d="M313.629 41.4004V44.7801C314.309 44.4939 314.751 43.828 314.751 43.0903C314.751 42.3525 314.309 41.6866 313.629 41.4004Z" fill="black"/>
<path d="M294.41 40.5994C294.41 39.7149 295.127 38.9978 296.012 38.9978H309.626C310.51 38.9978 311.227 39.7149 311.227 40.5994V44.6035C311.227 45.4881 310.51 46.2052 309.626 46.2052H296.012C295.127 46.2052 294.41 45.4881 294.41 44.6035V40.5994Z" fill="black"/>
<path fill-rule="evenodd" clip-rule="evenodd" d="M280.395 40.2692C282.37 40.2692 284.27 41.044 285.702 42.4332C285.81 42.5405 285.982 42.5391 286.088 42.4302L287.119 41.3686C287.172 41.3134 287.202 41.2385 287.202 41.1607C287.201 41.0828 287.171 41.0083 287.116 40.9537C283.359 37.2781 277.431 37.2781 273.674 40.9537C273.619 41.0083 273.588 41.0827 273.588 41.1606C273.587 41.2385 273.617 41.3133 273.671 41.3686L274.702 42.4302C274.808 42.5393 274.98 42.5406 275.088 42.4332C276.52 41.0439 278.42 40.2692 280.395 40.2692ZM280.424 43.5404C281.509 43.5403 282.555 43.9521 283.36 44.6957C283.469 44.8012 283.64 44.7989 283.746 44.6905L284.775 43.629C284.83 43.5733 284.86 43.4977 284.859 43.4192C284.858 43.3407 284.827 43.2659 284.771 43.2113C282.322 40.8853 278.528 40.8853 276.078 43.2113C276.023 43.2659 275.991 43.3408 275.99 43.4193C275.99 43.4978 276.02 43.5734 276.074 43.629L277.103 44.6905C277.209 44.7989 277.381 44.8012 277.489 44.6957C278.293 43.9526 279.339 43.5408 280.424 43.5404ZM282.517 45.6789C282.518 45.7576 282.488 45.8335 282.433 45.8886L280.652 47.7227C280.6 47.7766 280.529 47.8069 280.455 47.8069C280.381 47.8069 280.309 47.7766 280.257 47.7227L278.477 45.8886C278.421 45.8334 278.391 45.7575 278.393 45.6788C278.394 45.6001 278.428 45.5255 278.485 45.4728C279.622 44.4911 281.287 44.4911 282.425 45.4728C282.482 45.5256 282.515 45.6001 282.517 45.6789Z" fill="black"/>
<path d="M260.776 40.5995C260.776 40.1572 261.134 39.7987 261.577 39.7987H262.377C262.82 39.7987 263.178 40.1572 263.178 40.5995V47.006C263.178 47.4483 262.82 47.8068 262.377 47.8068H261.577C261.134 47.8068 260.776 47.4483 260.776 47.006V40.5995Z" fill="black"/>
<path d="M264.78 38.9978C264.78 38.5556 265.138 38.197 265.581 38.197H266.381C266.824 38.197 267.182 38.5556 267.182 38.9978V47.006C267.182 47.4483 266.824 47.8068 266.381 47.8068H265.581C265.138 47.8068 264.78 47.4483 264.78 47.006V38.9978Z" fill="black"/>
<path d="M256.772 43.4023C256.772 42.9601 257.13 42.6015 257.572 42.6015H258.373C258.816 42.6015 259.174 42.9601 259.174 43.4023V47.006C259.174 47.4483 258.816 47.8068 258.373 47.8068H257.572C257.13 47.8068 256.772 47.4483 256.772 47.006V43.4023Z" fill="black"/>
<path d="M252.768 45.4044C252.768 44.9621 253.126 44.6036 253.568 44.6036H254.369C254.811 44.6036 255.17 44.9621 255.17 45.4044V47.006C255.17 47.4483 254.811 47.8068 254.369 47.8068H253.568C253.126 47.8068 252.768 47.4483 252.768 47.006V45.4044Z" fill="black"/>
</g>
<rect x="126.4" y="689" width="107.2" height="4" rx="2" fill="black"/>
<defs>
<filter id="filter0_f_188_5146" x="0.00917989" y="98.7068" width="3.07148" height="26.0695" filterUnits="userSpaceOnUse" color-interpolation-filters="sRGB">
<feFlood flood-opacity="0" result="BackgroundImageFix"/>
<feBlend mode="normal" in="SourceGraphic" in2="BackgroundImageFix" result="shape"/>
<feGaussianBlur stdDeviation="0.269824" result="effect1_foregroundBlur_188_5146"/>
</filter>
<filter id="filter1_f_188_5146" x="0.00917989" y="150.982" width="3.07148" height="50.2501" filterUnits="userSpaceOnUse" color-interpolation-filters="sRGB">
<feFlood flood-opacity="0" result="BackgroundImageFix"/>
<feBlend mode="normal" in="SourceGraphic" in2="BackgroundImageFix" result="shape"/>
<feGaussianBlur stdDeviation="0.269824" result="effect1_foregroundBlur_188_5146"/>
</filter>
<filter id="filter2_f_188_5146" x="0.00917989" y="216.642" width="3.07148" height="50.2501" filterUnits="userSpaceOnUse" color-interpolation-filters="sRGB">
<feFlood flood-opacity="0" result="BackgroundImageFix"/>
<feBlend mode="normal" in="SourceGraphic" in2="BackgroundImageFix" result="shape"/>
<feGaussianBlur stdDeviation="0.269824" result="effect1_foregroundBlur_188_5146"/>
</filter>
<filter id="filter3_f_188_5146" x="-3.51483" y="11.0384" width="367.03" height="699.925" filterUnits="userSpaceOnUse" color-interpolation-filters="sRGB">
<feFlood flood-opacity="0" result="BackgroundImageFix"/>
<feBlend mode="normal" in="SourceGraphic" in2="BackgroundImageFix" result="shape"/>
<feGaussianBlur stdDeviation="0.266206" result="effect1_foregroundBlur_188_5146"/>
</filter>
<linearGradient id="paint0_linear_188_5146" x1="2.54101" y1="99.2465" x2="2.54101" y2="124.237" gradientUnits="userSpaceOnUse">
<stop stop-color="#CBCBCB" stop-opacity="0.27451"/>
<stop offset="0.05" stop-color="#CBCBCB"/>
<stop offset="0.95" stop-color="#CBCBCB"/>
<stop offset="1" stop-color="#CBCBCB" stop-opacity="0.275701"/>
</linearGradient>
<linearGradient id="paint1_linear_188_5146" x1="2.54101" y1="151.522" x2="2.54101" y2="200.693" gradientUnits="userSpaceOnUse">
<stop stop-color="#CBCBCB" stop-opacity="0.27451"/>
<stop offset="0.05" stop-color="#CBCBCB"/>
<stop offset="0.95" stop-color="#CBCBCB"/>
<stop offset="1" stop-color="#CBCBCB" stop-opacity="0.275701"/>
</linearGradient>
<linearGradient id="paint2_linear_188_5146" x1="2.54101" y1="217.182" x2="2.54101" y2="266.353" gradientUnits="userSpaceOnUse">
<stop stop-color="#CBCBCB" stop-opacity="0.27451"/>
<stop offset="0.05" stop-color="#CBCBCB"/>
<stop offset="0.95" stop-color="#CBCBCB"/>
<stop offset="1" stop-color="#CBCBCB" stop-opacity="0.275701"/>
</linearGradient>
<linearGradient id="paint3_linear_188_5146" x1="340.224" y1="361.123" x2="349.146" y2="361.123" gradientUnits="userSpaceOnUse">
<stop stop-color="#404040"/>
<stop offset="0.6" stop-color="#838383"/>
<stop offset="1" stop-color="#A7A7A7"/>
</linearGradient>
<linearGradient id="paint4_linear_188_5146" x1="19.7756" y1="361.123" x2="10.8535" y2="361.123" gradientUnits="userSpaceOnUse">
<stop stop-color="#404040"/>
<stop offset="0.6" stop-color="#838383"/>
<stop offset="1" stop-color="#A7A7A7"/>
</linearGradient>
<linearGradient id="paint5_linear_188_5146" x1="31.6797" y1="22.2019" x2="328.824" y2="22.2019" gradientUnits="userSpaceOnUse">
<stop stop-color="#4F4F4F" stop-opacity="0.130841"/>
<stop offset="0.07" stop-color="#4F4F4F"/>
<stop offset="0.937" stop-color="#4F4F4F" stop-opacity="0.953271"/>
<stop offset="1" stop-color="#4F4F4F" stop-opacity="0"/>
</linearGradient>
<linearGradient id="paint6_linear_188_5146" x1="31.6797" y1="699.54" x2="328.824" y2="699.54" gradientUnits="userSpaceOnUse">
<stop stop-color="#4F4F4F" stop-opacity="0.130841"/>
<stop offset="0.07" stop-color="#4F4F4F"/>
<stop offset="0.937" stop-color="#4F4F4F" stop-opacity="0.953271"/>
<stop offset="1" stop-color="#4F4F4F" stop-opacity="0"/>
</linearGradient>
<clipPath id="clip0_188_5146">
<path d="M24 54.3714C24 36.593 38.4123 22.1807 56.1908 22.1807H304.128C321.907 22.1807 336.319 36.593 336.319 54.3714V59.8191H24V54.3714Z" fill="white"/>
</clipPath>
</defs>
</svg>
