<svg width="209" height="31" viewBox="0 0 209 31" fill="none" xmlns="http://www.w3.org/2000/svg">
<path d="M2.32467 23.0762C0.852365 20.7515 0 17.9953 0 15.04C0 6.73365 6.73365 0 15.04 0C15.2501 0 15.4591 0.00430619 15.6671 0.012836L2.32467 23.0762Z" fill="#161616"/>
<path d="M18.8191 0.478815L29.5746 18.9199C29.9042 17.6821 30.0798 16.3816 30.0798 15.04C30.0798 8.03889 25.2962 2.15511 18.8191 0.478815Z" fill="#161616"/>
<path d="M26.5359 24.7384L23.4677 20.3018L19.5899 20.0344C18.4098 19.953 17.3278 19.3482 16.6402 18.3855L16.0843 17.6073C15.922 17.38 16.0395 17.0606 16.3105 16.9929L21.2899 15.7481L17.1017 7.81303L6.03521 26.986C6.02162 27.0095 6.00783 27.0329 5.9938 27.056C8.51128 28.9544 11.6444 30.0799 15.0403 30.0799C19.6509 30.0799 23.777 28.0052 26.5359 24.7384Z" fill="#161616"/>
<path d="M53.216 19L56.948 10.54H57.812L61.604 19H60.572L59.624 16.84H55.16L54.236 19H53.216ZM57.368 11.68L55.52 16.024H59.288L57.392 11.68H57.368Z" fill="#161616"/>
<path d="M62.8802 19V10.54H63.6602L68.8082 17.368V10.54H69.7322V19H68.9642L63.8042 12.16V19H62.8802Z" fill="#161616"/>
<path d="M73.9331 19V15.4L70.6451 10.54H71.7971L74.4491 14.56L77.1011 10.54H78.2051L74.9291 15.412V19H73.9331Z" fill="#161616"/>
<path d="M79.2982 19V10.54H84.6982V11.356H80.2702V14.296H84.4342V15.124H80.2702V18.172H84.6982V19H79.2982Z" fill="#161616"/>
<path d="M86.3529 19V10.54H89.8089C90.6969 10.54 91.3849 10.752 91.8729 11.176C92.3609 11.592 92.6049 12.176 92.6049 12.928C92.6049 13.52 92.4489 14.008 92.1369 14.392C91.8249 14.768 91.4009 15.024 90.8649 15.16C91.0889 15.216 91.2889 15.324 91.4649 15.484C91.6489 15.644 91.8009 15.868 91.9209 16.156L93.1209 19H92.0289L90.8769 16.204C90.7409 15.844 90.5369 15.612 90.2649 15.508C89.9929 15.396 89.6529 15.34 89.2449 15.34H87.3489V19H86.3529ZM87.3489 14.56H89.6649C90.2969 14.56 90.7809 14.424 91.1169 14.152C91.4529 13.872 91.6209 13.472 91.6209 12.952C91.6209 12.432 91.4529 12.036 91.1169 11.764C90.7809 11.492 90.2969 11.356 89.6649 11.356H87.3489V14.56Z" fill="#161616"/>
<path d="M93.6926 19L97.4246 10.54H98.2886L102.081 19H101.049L100.101 16.84H95.6366L94.7126 19H93.6926ZM97.8446 11.68L95.9966 16.024H99.7646L97.8686 11.68H97.8446Z" fill="#161616"/>
<path d="M106.486 19V10.54H109.294C110.702 10.54 111.778 10.904 112.522 11.632C113.274 12.36 113.65 13.404 113.65 14.764C113.65 16.124 113.274 17.172 112.522 17.908C111.778 18.636 110.702 19 109.294 19H106.486ZM107.482 18.148H109.222C111.494 18.148 112.63 17.02 112.63 14.764C112.63 12.508 111.494 11.38 109.222 11.38H107.482V18.148Z" fill="#161616"/>
<path d="M115.451 19V10.54H116.447V19H115.451Z" fill="#161616"/>
<path d="M122.444 19.108C121.052 19.108 120.004 18.724 119.3 17.956C118.596 17.188 118.244 16.128 118.244 14.776C118.244 13.88 118.408 13.108 118.736 12.46C119.064 11.812 119.536 11.312 120.152 10.96C120.768 10.608 121.512 10.432 122.384 10.432C123 10.432 123.532 10.524 123.98 10.708C124.436 10.884 124.844 11.148 125.204 11.5L124.832 12.28C124.568 12.056 124.316 11.876 124.076 11.74C123.836 11.596 123.58 11.492 123.308 11.428C123.044 11.356 122.736 11.32 122.384 11.32C121.384 11.32 120.616 11.624 120.08 12.232C119.552 12.832 119.288 13.684 119.288 14.788C119.288 15.908 119.544 16.764 120.056 17.356C120.576 17.94 121.38 18.232 122.468 18.232C123.172 18.232 123.836 18.112 124.46 17.872V15.352H122.3V14.572H125.312V18.496C124.968 18.68 124.532 18.828 124.004 18.94C123.484 19.052 122.964 19.108 122.444 19.108Z" fill="#161616"/>
<path d="M127.333 19V10.54H128.329V19H127.333Z" fill="#161616"/>
<path d="M132.491 19V11.38H129.503V10.54H136.463V11.38H133.487V19H132.491Z" fill="#161616"/>
<path d="M135.927 19L139.659 10.54H140.523L144.315 19H143.283L142.335 16.84H137.871L136.947 19H135.927ZM140.079 11.68L138.231 16.024H141.999L140.103 11.68H140.079Z" fill="#161616"/>
<path d="M145.591 19V10.54H146.587V18.136H150.859V19H145.591Z" fill="#161616"/>
<path d="M162.027 19.108C161.683 18.956 161.363 18.772 161.067 18.556C160.779 18.34 160.527 18.124 160.311 17.908C159.967 18.292 159.559 18.588 159.087 18.796C158.623 19.004 158.119 19.108 157.575 19.108C156.711 19.108 156.035 18.912 155.547 18.52C155.059 18.128 154.815 17.612 154.815 16.972C154.815 16.42 154.975 15.952 155.295 15.568C155.615 15.184 156.071 14.8 156.663 14.416L156.855 14.284C156.503 13.9 156.243 13.556 156.075 13.252C155.915 12.948 155.835 12.628 155.835 12.292C155.835 11.74 156.027 11.292 156.411 10.948C156.803 10.604 157.319 10.432 157.959 10.432C158.503 10.432 158.955 10.588 159.315 10.9C159.683 11.204 159.867 11.62 159.867 12.148C159.867 12.564 159.739 12.944 159.483 13.288C159.235 13.632 158.791 14.004 158.151 14.404L160.227 16.648C160.403 16.32 160.543 15.928 160.647 15.472C160.751 15.016 160.811 14.54 160.827 14.044H161.679C161.663 14.668 161.579 15.256 161.427 15.808C161.283 16.352 161.083 16.836 160.827 17.26C161.027 17.46 161.263 17.664 161.535 17.872C161.815 18.072 162.111 18.244 162.423 18.388L162.027 19.108ZM157.959 11.164C157.599 11.164 157.307 11.268 157.083 11.476C156.859 11.676 156.747 11.944 156.747 12.28C156.747 12.536 156.811 12.772 156.939 12.988C157.067 13.204 157.303 13.496 157.647 13.864C158.135 13.56 158.487 13.284 158.703 13.036C158.927 12.78 159.039 12.5 159.039 12.196C159.039 11.884 158.939 11.636 158.739 11.452C158.539 11.26 158.279 11.164 157.959 11.164ZM157.611 18.316C158.059 18.316 158.459 18.236 158.811 18.076C159.163 17.908 159.471 17.664 159.735 17.344L157.383 14.836L157.239 14.92C156.735 15.256 156.363 15.572 156.123 15.868C155.891 16.156 155.775 16.504 155.775 16.912C155.775 17.352 155.931 17.696 156.243 17.944C156.563 18.192 157.019 18.316 157.611 18.316Z" fill="#161616"/>
<path d="M166.427 19V10.54H169.235C170.643 10.54 171.719 10.904 172.463 11.632C173.215 12.36 173.591 13.404 173.591 14.764C173.591 16.124 173.215 17.172 172.463 17.908C171.719 18.636 170.643 19 169.235 19H166.427ZM167.423 18.148H169.163C171.435 18.148 172.571 17.02 172.571 14.764C172.571 12.508 171.435 11.38 169.163 11.38H167.423V18.148Z" fill="#161616"/>
<path d="M175.392 19V10.54H180.792V11.356H176.364V14.296H180.528V15.124H176.364V18.172H180.792V19H175.392Z" fill="#161616"/>
<path d="M185.089 19.108C184.409 19.108 183.801 19.02 183.265 18.844C182.729 18.668 182.261 18.416 181.861 18.088L182.221 17.296C182.645 17.616 183.077 17.852 183.517 18.004C183.957 18.156 184.481 18.232 185.089 18.232C185.801 18.232 186.329 18.1 186.673 17.836C187.017 17.572 187.189 17.22 187.189 16.78C187.189 16.404 187.069 16.116 186.829 15.916C186.589 15.716 186.169 15.556 185.569 15.436L184.309 15.184C183.533 15.024 182.953 14.764 182.569 14.404C182.193 14.044 182.005 13.556 182.005 12.94C182.005 12.436 182.133 11.996 182.389 11.62C182.653 11.244 183.021 10.952 183.493 10.744C183.965 10.536 184.513 10.432 185.137 10.432C186.361 10.432 187.333 10.784 188.053 11.488L187.705 12.256C187.329 11.92 186.933 11.68 186.517 11.536C186.109 11.384 185.645 11.308 185.125 11.308C184.469 11.308 183.949 11.452 183.565 11.74C183.189 12.02 183.001 12.404 183.001 12.892C183.001 13.284 183.121 13.592 183.361 13.816C183.601 14.032 183.997 14.196 184.549 14.308L185.821 14.56C186.637 14.728 187.237 14.984 187.621 15.328C188.005 15.664 188.197 16.132 188.197 16.732C188.197 17.204 188.069 17.62 187.813 17.98C187.565 18.332 187.209 18.608 186.745 18.808C186.281 19.008 185.729 19.108 185.089 19.108Z" fill="#161616"/>
<path d="M189.806 19V10.54H190.802V19H189.806Z" fill="#161616"/>
<path d="M196.799 19.108C195.407 19.108 194.359 18.724 193.655 17.956C192.951 17.188 192.599 16.128 192.599 14.776C192.599 13.88 192.763 13.108 193.091 12.46C193.419 11.812 193.891 11.312 194.507 10.96C195.123 10.608 195.867 10.432 196.739 10.432C197.355 10.432 197.887 10.524 198.335 10.708C198.791 10.884 199.199 11.148 199.559 11.5L199.187 12.28C198.923 12.056 198.671 11.876 198.431 11.74C198.191 11.596 197.935 11.492 197.663 11.428C197.399 11.356 197.091 11.32 196.739 11.32C195.739 11.32 194.971 11.624 194.435 12.232C193.907 12.832 193.643 13.684 193.643 14.788C193.643 15.908 193.899 16.764 194.411 17.356C194.931 17.94 195.735 18.232 196.823 18.232C197.527 18.232 198.191 18.112 198.815 17.872V15.352H196.655V14.572H199.667V18.496C199.323 18.68 198.887 18.828 198.359 18.94C197.839 19.052 197.319 19.108 196.799 19.108Z" fill="#161616"/>
<path d="M201.689 19V10.54H202.469L207.617 17.368V10.54H208.541V19H207.773L202.613 12.16V19H201.689Z" fill="#161616"/>
</svg>
