<svg width="844" height="608" viewBox="0 0 844 608" fill="none" xmlns="http://www.w3.org/2000/svg">
<path d="M772.255 1.22107C791.554 1.22107 801.203 1.22107 808.976 3.88234C823.408 8.82368 834.745 20.1605 839.686 34.593C842.348 42.366 842.348 52.0151 842.348 71.3134L842.348 536.685C842.348 555.983 842.348 565.632 839.686 573.405C834.745 587.838 823.408 599.174 808.976 604.116C801.203 606.777 791.554 606.777 772.255 606.777L71.3 606.777C52.0018 606.777 42.3527 606.777 34.5797 604.116C20.1472 599.174 8.81036 587.838 3.86902 573.405C1.20776 565.632 1.20776 555.983 1.20776 536.685L1.20776 71.3133C1.20776 52.0151 1.20776 42.366 3.86902 34.593C8.81036 20.1605 20.1472 8.82368 34.5797 3.88234C42.3527 1.22107 52.0018 1.22107 71.3 1.22107L772.255 1.22107Z" fill="#0B0B0B"/>
<path d="M809.171 3.31285C801.303 0.619093 791.563 0.619106 772.429 0.61913L772.255 0.619131L71.3 0.619131L71.1262 0.61913C51.9922 0.619106 42.2526 0.619093 34.3847 3.31285C19.7762 8.31446 8.30115 19.7896 3.29956 34.3981C0.605774 42.2659 0.605835 52.0055 0.605835 71.1395V71.3133L0.605835 536.685V536.858C0.605835 555.993 0.605774 565.732 3.29956 573.6C8.30115 588.209 19.7762 599.684 34.3847 604.685C42.2526 607.379 51.9922 607.379 71.1262 607.379H71.3L772.255 607.379H772.429C791.563 607.379 801.303 607.379 809.171 604.685C823.779 599.684 835.254 588.209 840.256 573.6C842.95 565.732 842.95 555.993 842.95 536.859L842.95 536.685L842.95 71.3134L842.95 71.1396C842.95 52.0055 842.95 42.2659 840.256 34.3981C835.254 19.7896 823.779 8.31446 809.171 3.31285Z" stroke="#ABACAE" stroke-opacity="0.4" stroke-width="1.20388"/>
</svg>
