<svg width="100.000000" height="100.000000" viewBox="0 0 100 100" fill="none" xmlns="http://www.w3.org/2000/svg" xmlns:xlink="http://www.w3.org/1999/xlink">
	<desc>
			Created with Pixso.
	</desc>
	<defs>
		<clipPath id="clip4355_12117">
			<rect id="django-logo_svgstack_com_28171745560061" width="100.000000" height="100.000000" fill="white" fill-opacity="0"/>
		</clipPath>
	</defs>
	<g clip-path="url(#clip4355_12117)">
		<path id="path" d="M46.2 0L62.54 0L62.54 74.89C54.17 76.48 48.01 77.1 41.34 77.1C21.38 77.08 11 68.16 11 51.04C11 34.54 22.01 23.83 39.09 23.83C41.74 23.83 43.76 24.04 46.2 24.66L46.2 0ZM46.77 38.16C44.86 37.53 43.28 37.33 41.26 37.33C33 37.33 28.23 42.37 28.23 51.2C28.23 59.81 32.79 64.56 41.16 64.56C42.97 64.56 44.44 64.45 46.77 64.14L46.77 38.16Z" fill="#2BA977" fill-opacity="1.000000" fill-rule="nonzero"/>
		<path id="path" d="M89.26 25.84L89.26 63.34C89.26 76.25 88.3 82.46 85.46 87.82C82.81 92.97 79.32 96.21 72.1 99.8L56.94 92.65C64.15 89.3 67.65 86.34 69.87 81.82C72.21 77.19 72.94 71.84 72.94 57.76L72.94 25.84L89.26 25.84ZM71.3 0L87.64 0L87.64 16.6L71.3 16.6L71.3 0Z" fill="#2BA977" fill-opacity="1.000000" fill-rule="nonzero"/>
	</g>
</svg>
