<svg width="100.000000" height="72.165070" viewBox="0 0 100 72.1651" fill="none" xmlns="http://www.w3.org/2000/svg" xmlns:xlink="http://www.w3.org/1999/xlink">
	<desc>
			Created with Pixso.
	</desc>
	<defs/>
	<path id="path" d="M97.93 27.53C95.68 25.97 90.52 25.38 86.48 26.17C86.01 22.26 83.86 18.84 80.1 15.81L77.95 14.25L76.44 16.5C74.57 19.43 73.63 23.53 73.91 27.44C74 28.8 74.47 31.24 75.88 33.39C74.57 34.17 71.85 35.15 68.28 35.15L0.45 35.15L0.26 35.93C-0.4 39.84 -0.4 52.04 7.3 61.42C13.11 68.55 21.75 72.16 33.1 72.16C57.68 72.16 75.88 60.34 84.42 38.96C87.8 39.06 95.02 38.96 98.68 31.63C98.77 31.44 98.96 31.05 99.62 29.58L100 28.8L97.93 27.53ZM54.68 0L44.36 0L44.36 9.76L54.68 9.76L54.68 0ZM54.68 11.71L44.36 11.71L44.36 21.48L54.68 21.48L54.68 11.71ZM42.48 11.71L32.16 11.71L32.16 21.48L42.48 21.48L42.48 11.71ZM30.28 11.71L19.96 11.71L19.96 21.48L30.28 21.48L30.28 11.71ZM18.08 23.43L7.76 23.43L7.76 33.2L18.08 33.2L18.08 23.43ZM30.28 23.43L19.96 23.43L19.96 33.2L30.28 33.2L30.28 23.43ZM42.48 23.43L32.16 23.43L32.16 33.2L42.48 33.2L42.48 23.43ZM54.68 23.43L44.36 23.43L44.36 33.2L54.68 33.2L54.68 23.43ZM66.87 23.43L56.55 23.43L56.55 33.2L66.87 33.2L66.87 23.43Z" fill="#2396ED" fill-opacity="1.000000" fill-rule="nonzero"/>
</svg>
