<svg width="99.554688" height="98.000000" viewBox="0 0 99.5547 98" fill="none" xmlns="http://www.w3.org/2000/svg" xmlns:xlink="http://www.w3.org/1999/xlink">
	<desc>
			Created with Pixso.
	</desc>
	<defs>
		<clipPath id="clip4355_12121">
			<rect id="mysql-icon-logo" width="99.555565" height="98.000000" fill="white" fill-opacity="0"/>
		</clipPath>
	</defs>
	<g clip-path="url(#clip4355_12121)">
		<path id="path" d="M91.64 75.52C86.22 75.39 82.03 75.93 78.51 77.42C77.5 77.82 75.87 77.82 75.74 79.11C76.28 79.65 76.34 80.53 76.82 81.27C77.63 82.63 79.05 84.45 80.34 85.4C81.76 86.48 83.18 87.57 84.67 88.51C87.31 90.14 90.28 91.08 92.85 92.71C94.34 93.65 95.83 94.87 97.32 95.89C98.06 96.43 98.54 97.31 99.49 97.65L99.49 97.44C99.01 96.83 98.88 95.96 98.4 95.28C97.73 94.6 97.05 93.99 96.37 93.32C94.41 90.68 91.98 88.38 89.33 86.48C87.17 84.99 82.43 82.96 81.56 80.46C81.56 80.46 81.49 80.39 81.42 80.33C82.91 80.19 84.67 79.65 86.09 79.24C88.39 78.63 90.49 78.77 92.85 78.16C93.94 77.89 95.02 77.55 96.1 77.21L96.1 76.61C94.88 75.39 94 73.76 92.72 72.61C89.27 69.64 85.48 66.73 81.56 64.29C79.46 62.94 76.75 62.06 74.52 60.91C73.71 60.5 72.35 60.3 71.88 59.62C70.66 58.13 69.99 56.17 69.11 54.41C67.14 50.69 65.25 46.56 63.56 42.64C62.34 40 61.59 37.36 60.11 34.93C53.14 23.42 45.56 16.46 33.92 9.62C31.42 8.2 28.44 7.59 25.26 6.85C23.57 6.78 21.88 6.65 20.19 6.58C19.11 6.1 18.02 4.82 17.08 4.21C13.22 1.77 3.27 -3.5 0.43 3.47C-1.4 7.86 3.14 12.19 4.69 14.43C5.84 15.98 7.33 17.74 8.15 19.5C8.62 20.65 8.75 21.87 9.23 23.09C10.31 26.06 11.33 29.38 12.75 32.15C13.49 33.57 14.3 35.06 15.25 36.35C15.79 37.09 16.74 37.43 16.94 38.65C15.99 40 15.92 42.03 15.38 43.72C12.95 51.37 13.9 60.84 17.35 66.46C18.43 68.15 21 71.87 24.45 70.45C27.5 69.23 26.82 65.37 27.7 61.99C27.9 61.18 27.77 60.64 28.17 60.1C28.17 60.16 28.17 60.23 28.17 60.23C29.12 62.13 30.07 63.95 30.95 65.85C33.04 69.16 36.7 72.61 39.74 74.91C41.37 76.13 42.65 78.23 44.68 78.97L44.68 78.77L44.55 78.77C44.14 78.16 43.53 77.89 42.99 77.42C41.77 76.2 40.42 74.71 39.47 73.36C36.63 69.57 34.13 65.37 31.89 61.04C30.81 58.95 29.86 56.65 28.98 54.55C28.58 53.74 28.58 52.52 27.9 52.11C26.89 53.6 25.4 54.89 24.65 56.71C23.37 59.62 23.23 63.21 22.76 66.93C22.49 67 22.62 66.93 22.49 67.06C20.32 66.52 19.58 64.29 18.77 62.4C16.74 57.59 16.4 49.88 18.16 44.33C18.63 42.91 20.66 38.45 19.85 37.09C19.44 35.81 18.09 35.06 17.35 34.05C16.47 32.76 15.52 31.14 14.91 29.72C13.29 25.93 12.48 21.73 10.72 17.94C9.9 16.18 8.48 14.36 7.33 12.73C6.05 10.91 4.63 9.62 3.61 7.46C3.27 6.71 2.8 5.5 3.34 4.68C3.48 4.14 3.75 3.94 4.29 3.8C5.17 3.06 7.67 4.01 8.55 4.41C11.05 5.43 13.15 6.37 15.25 7.8C16.2 8.47 17.21 9.76 18.43 10.1L19.85 10.1C22.01 10.57 24.45 10.23 26.48 10.84C30.07 11.99 33.31 13.68 36.22 15.51C45.09 21.12 52.39 29.11 57.33 38.65C58.15 40.2 58.48 41.63 59.23 43.25C60.65 46.56 62.41 49.95 63.83 53.19C65.25 56.37 66.6 59.62 68.63 62.26C69.65 63.68 73.71 64.43 75.53 65.17C76.89 65.78 78.98 66.32 80.2 67.06C82.5 68.49 84.8 70.11 86.97 71.67C88.05 72.48 91.43 74.17 91.64 75.52Z" fill="#00546B" fill-opacity="1.000000" fill-rule="nonzero"/>
		<path id="path" d="M22.62 16.73C21.47 16.73 20.66 16.86 19.85 17.06C19.85 17.06 19.85 17.13 19.85 17.2L19.98 17.2C20.53 18.28 21.47 19.03 22.15 19.97C22.69 21.06 23.16 22.14 23.71 23.22C23.77 23.15 23.84 23.09 23.84 23.09C24.79 22.41 25.26 21.33 25.26 19.7C24.85 19.23 24.79 18.76 24.45 18.28C24.04 17.61 23.16 17.27 22.62 16.73Z" fill="#00546B" fill-opacity="1.000000" fill-rule="nonzero"/>
	</g>
</svg>
