<svg width="96.000000" height="109.065887" viewBox="0 0 96 109.066" fill="none" xmlns="http://www.w3.org/2000/svg" xmlns:xlink="http://www.w3.org/1999/xlink">
	<desc>
			Created with Pixso.
	</desc>
	<defs/>
	<path id="path" d="M0.76 81.82C1.26 82.7 1.98 83.36 2.86 83.85L45.22 108.28C46.98 109.32 49.12 109.32 50.83 108.28L93.19 83.85C94.95 82.86 96 80.99 96 78.95L96 30.1C96 28.07 94.95 26.2 93.19 25.21L50.83 0.78C49.07 -0.27 46.92 -0.27 45.22 0.78L2.86 25.21C1.04 26.2 0 28.07 0 30.1L0 79.01C0 80 0.22 80.93 0.76 81.82Z" fill="#009639" fill-opacity="1.000000" fill-rule="nonzero"/>
	<path id="path" d="M34.43 73.18C34.43 76.2 32.01 78.62 28.99 78.62C25.96 78.62 23.54 76.2 23.54 73.18L23.54 35.82C23.54 32.91 26.13 30.54 29.7 30.54C32.29 30.54 35.32 31.59 37.13 33.84L38.78 35.82L61.56 63.06L61.56 35.93C61.56 32.91 63.98 30.49 67 30.49C70.03 30.49 72.45 32.91 72.45 35.93L72.45 73.29C72.45 76.2 69.86 78.57 66.29 78.57C63.7 78.57 60.68 77.52 58.86 75.27L34.43 46.11L34.43 73.18Z" fill="#FFFFFF" fill-opacity="1.000000" fill-rule="nonzero"/>
</svg>
